<svg xmlns="http://www.w3.org/2000/svg" viewBox="0 0 1000 1000" fill="none">
    <g id="dev-icon">
    <path fill="currentColor" d="M63.219 7.438H4.78a3.723 3.723 0 0 0-3.718 3.718v37.188a3.723 3.723 0 0 0 3.718 3.718h21.274L24.78 55.25h-5.655a1.062 1.062 0 0 0-1.063 1.063v2.124h-6.375a1.062 1.062 0 1 0 0 2.126h44.626a1.062 1.062 0 1 0 0-2.126h-6.376v-2.124a1.062 1.062 0 0 0-1.062-1.063H43.22l-1.275-3.188h21.274a3.723 3.723 0 0 0 3.718-3.718V11.156a3.723 3.723 0 0 0-3.718-3.719ZM47.812 57.374v1.063H20.189v-1.063h27.625ZM27.07 55.25l1.275-3.188h11.31l1.275 3.188H27.07Zm37.742-6.906a1.595 1.595 0 0 1-1.593 1.593H4.78a1.595 1.595 0 0 1-1.593-1.593v-2.657h61.624v2.657Zm0-4.782H3.188V11.157A1.595 1.595 0 0 1 4.78 9.562H63.22a1.595 1.595 0 0 1 1.593 1.594v32.407Z"/>
    <path fill="currentColor" d="M29.167 34.888a1.063 1.063 0 0 0 1.471-.305l8.367-12.75a1.062 1.062 0 1 0-1.776-1.166l-8.367 12.75a1.062 1.062 0 0 0 .305 1.471ZM40.757 34.816a1.062 1.062 0 0 0 1.497-.136l5.312-6.375a1.063 1.063 0 0 0 0-1.36l-5.312-6.375a1.062 1.062 0 1 0-1.633 1.36l4.746 5.695-4.746 5.695a1.063 1.063 0 0 0 .136 1.496ZM25.746 34.68a1.063 1.063 0 1 0 1.633-1.36l-4.746-5.695 4.746-5.695a1.062 1.062 0 1 0-1.633-1.36l-5.312 6.375a1.062 1.062 0 0 0 0 1.36l5.312 6.375Z"/>
    </g>

    <g id="game-dev-icon" >
        <path fill="currentColor" d="M32.375 38.156h9.25v2.313h-9.25v-2.313Z"/><path fill="currentColor" d="M35.844 34.688h2.312v9.25h-2.312v-9.25ZM65.906 38.156h2.313v2.313h-2.313v-2.313ZM56.656 38.156h2.313v2.313h-2.313v-2.313ZM61.281 33.531h2.313v2.313H61.28V33.53ZM61.281 42.781h2.313v2.313H61.28V42.78ZM10.66 20.379l-5.203-6.504 5.203-6.504 1.805 1.445-4.047 5.059 4.047 5.059-1.805 1.445ZM28.653 20.379l-1.806-1.445 4.048-5.059-4.048-5.059 1.806-1.445 5.202 6.504-5.202 6.504ZM14.738 17.738l8.096-9.248 1.74 1.522-8.096 9.249-1.74-1.523ZM9.25 50.875H4.625V46.25h2.313v2.313H9.25v2.312Z"/><path fill="currentColor" d="M70.531 2.313H3.47A3.469 3.469 0 0 0 0 5.78v46.25A3.469 3.469 0 0 0 3.469 55.5H27.75v5.781a3.469 3.469 0 0 1-3.469 3.469H18.5v6.938h37V64.75h-5.781a3.469 3.469 0 0 1-3.469-3.469V55.5h24.281A3.469 3.469 0 0 0 74 52.031V5.781a3.469 3.469 0 0 0-3.469-3.468Zm-17.344 64.75v2.312H20.813v-2.313h32.374ZM37 62.486a3.469 3.469 0 0 0 3.469-3.469V55.5h3.468v5.781a5.724 5.724 0 0 0 1.187 3.469H28.876a5.724 5.724 0 0 0 1.186-3.469V55.5h3.47v3.517A3.469 3.469 0 0 0 37 62.487Zm-1.156-3.469V55.5h2.312v3.517a1.156 1.156 0 0 1-2.312 0Zm35.843-6.986c0 .639-.517 1.157-1.156 1.157H3.47a1.156 1.156 0 0 1-1.156-1.157V41.625h23.356A11.553 11.553 0 0 0 47 45.094h5.435a11.532 11.532 0 0 0 19.252 1.126v5.811Zm-9.25-3.468a9.198 9.198 0 0 1-8.276-5.141l-.32-.64h-8.244l-.32.64A9.25 9.25 0 1 1 37 30.062h25.438a9.25 9.25 0 0 1 9.25 9.25 9.25 9.25 0 0 1-9.25 9.25Zm9.25-16.158a11.54 11.54 0 0 0-9.25-4.655H37c-6.383.007-11.556 5.18-11.563 11.563H2.313V5.78c0-.638.518-1.156 1.157-1.156H70.53c.639 0 1.156.518 1.156 1.156v26.624Z"/><path fill="currentColor" d="M47.406 38.156h4.625v2.313h-4.625v-2.313ZM34.688 9.25h9.25v2.313h-9.25V9.25ZM48.563 9.25h18.5v2.313h-18.5V9.25ZM50.875 13.875h16.188v2.313H50.874v-2.313ZM37 13.875h9.25v2.313H37v-2.313ZM34.688 18.5h23.124v2.313H34.689V18.5ZM62.438 18.5h4.624v2.313h-4.624V18.5ZM6.938 23.125H18.5v2.313H6.937v-2.313ZM23.125 23.125h21.969v2.313H23.125v-2.313ZM48.563 23.125h18.5v2.313h-18.5v-2.313ZM6.938 27.75h18.5v2.313h-18.5V27.75ZM6.938 32.375h9.25v2.313h-9.25v-2.313ZM18.5 32.375h4.625v2.313H18.5v-2.313Z"/>
    </g>

    <g id="ad-popup-icon">
        <path fill="currentColor" d="M47.79 10.313a1.082 1.082 0 1 0 0-2.165 1.082 1.082 0 0 0 0 2.165ZM52.441 10.313a1.083 1.083 0 1 0 0-2.165 1.083 1.083 0 0 0 0 2.165ZM20.476 10.315h19.48a1.084 1.084 0 0 0 0-2.169h-19.48a1.084 1.084 0 1 0 0 2.168Z"/><path fill="currentColor" d="M71.12 59.37h-1.902v-7.101a1.084 1.084 0 0 0-2.168 0v7.1H6.95V22.764c0-1.475 1.2-2.674 2.674-2.674h5.144v2.92h-2.822a2.078 2.078 0 0 0-2.075 2.076v29.289c0 1.144.93 2.075 2.075 2.075h50.108a2.078 2.078 0 0 0 2.075-2.075V25.085a2.078 2.078 0 0 0-2.075-2.076H59.23v-2.92h5.145c1.474 0 2.674 1.2 2.674 2.674v24.435a1.084 1.084 0 0 0 2.168 0V22.763a4.847 4.847 0 0 0-4.842-4.842h-5.145V5.991A2.225 2.225 0 0 0 57.01 3.77H16.99a2.225 2.225 0 0 0-2.223 2.222v11.93H9.624a4.847 4.847 0 0 0-4.842 4.842V59.37H2.88A2.883 2.883 0 0 0 0 62.25c0 4.4 3.58 7.982 7.982 7.982h58.036c4.401 0 7.982-3.581 7.982-7.983a2.883 2.883 0 0 0-2.88-2.88ZM12.04 25.177h2.73v29.104h-2.73V25.177Zm49.922 0v29.104h-2.73V25.177h2.73Zm-44.97-19.24H57.01c.03 0 .055.024.055.055v6.532H25.416a1.084 1.084 0 0 0 0 2.168h31.648v39.59H16.936v-39.59h3.413a1.084 1.084 0 0 0 0-2.168h-3.413V5.991c0-.03.025-.054.055-.054Zm9.56 55.6H47.45v1.09c0 .6-.49 1.09-1.09 1.09H27.64c-.6 0-1.09-.49-1.09-1.09v-1.09Zm39.467 6.527H7.982a5.82 5.82 0 0 1-5.814-5.815c0-.392.32-.711.712-.711h21.502v1.089a3.261 3.261 0 0 0 3.258 3.258h18.72a3.261 3.261 0 0 0 3.258-3.258v-1.09H71.12c.393 0 .712.32.712.712a5.82 5.82 0 0 1-5.814 5.815Z"/><path fill="currentColor" d="m22.548 34.812-.786.202a3.258 3.258 0 0 0-2.343 3.97l.543 2.106a3.265 3.265 0 0 0 3.157 2.447c.623 0 .972-.163 1.727-.34.55.641 1.387.995 2.255.912l3.801 5.762c.395.6 1.06.945 1.755.945.43 0 .617-.108 1.755-.384a2.101 2.101 0 0 0 1.511-2.56l-1.45-5.626 1.548-.398a12.931 12.931 0 0 1 11.677 2.716l.013.053c.21.811.721 1.492 1.443 1.918a3.114 3.114 0 0 0 2.375.336 3.114 3.114 0 0 0 1.917-1.443 3.113 3.113 0 0 0 .336-2.375l-5.781-22.44a3.114 3.114 0 0 0-1.442-1.918 3.115 3.115 0 0 0-2.376-.336 3.113 3.113 0 0 0-1.917 1.442 3.113 3.113 0 0 0-.336 2.376l.013.052a12.93 12.93 0 0 1-8.91 8.021l-8.512 2.193a2.644 2.644 0 0 0-1.973 2.369Zm.843 6.522a1.093 1.093 0 0 1-1.33-.785l-.543-2.106a1.09 1.09 0 0 1 .785-1.33l.651-.167 1.088 4.22-.651.168Zm10.416 7.015-1.121.289-3.344-5.07 3.032-.78 1.433 5.561Zm10.326-27.446a.96.96 0 0 1 .832-.475c.43 0 .824.29.936.725l5.782 22.44a.968.968 0 0 1-1.872.483l-5.782-22.44a.961.961 0 0 1 .104-.733Zm-1.354 4.572 4.083 15.844c-5.845-3.405-11.41-1.537-11.539-1.53l-1.906-7.4c.117-.056 5.885-1.099 9.362-6.915Zm-17.717 9.067 6.255-1.611 1.907 7.399-6.255 1.611c-.455.117-.57-.343-.581-.358l-1.666-6.464a.474.474 0 0 1 .34-.577Z"/>
    </g>

    <g id="illustration-icon"  fill="currentColor" clip-path="url(#a)" >
        <path d="M31.61 49.338a.996.996 0 1 0 0 1.993h4.78a.996.996 0 1 0 0-1.993h-4.78ZM11.953 33.872h6.584a2.791 2.791 0 0 0 2.602 1.793c1.187 0 2.2-.747 2.602-1.793h1.316a.996.996 0 1 0 0-1.993h-1.316a2.791 2.791 0 0 0-2.602-1.793c-1.186 0-2.2.747-2.602 1.793h-6.584a.996.996 0 1 0 0 1.993Zm9.186-1.793a.798.798 0 1 1-.001 1.595.798.798 0 0 1 .001-1.595ZM11.953 28.16h1.272a2.791 2.791 0 0 0 2.602 1.794c1.186 0 2.2-.747 2.602-1.793h6.628a.996.996 0 1 0 0-1.992H18.43a2.791 2.791 0 0 0-2.602-1.794c-1.187 0-2.2.747-2.602 1.794h-1.272a.996.996 0 1 0 0 1.992Zm3.874-1.792a.798.798 0 1 1-.002 1.595.798.798 0 0 1 .002-1.595ZM25.257 18.997a.996.996 0 1 0 0-1.993.996.996 0 0 0 0 1.993ZM22.512 18.997a.996.996 0 1 0 0-1.993.996.996 0 0 0 0 1.993ZM19.767 18.997a.996.996 0 1 0 0-1.993.996.996 0 0 0 0 1.993Z"/><path d="M65.012 6.705h-.373l.278-.278a2.14 2.14 0 0 0 0-3.023l-2.18-2.18a2.14 2.14 0 0 0-3.024 0l-5.48 5.48H2.987A2.992 2.992 0 0 0 0 9.694v41.366a3.656 3.656 0 0 0 3.652 3.653h23.594v7.046h-4.8a2.327 2.327 0 0 0-2.325 2.324v.996a2.327 2.327 0 0 0 2.324 2.324h23.11a2.327 2.327 0 0 0 2.324-2.325v-.995a2.327 2.327 0 0 0-2.324-2.324h-4.8v-7.046h10.643a.996.996 0 1 0 0-1.993H3.652c-.915 0-1.66-.744-1.66-1.66v-2.948h64.016v2.948c0 .916-.745 1.66-1.66 1.66h-8.301a.996.996 0 1 0 0 1.993h8.3A3.656 3.656 0 0 0 68 51.059V9.693a2.992 2.992 0 0 0-2.988-2.988ZM45.555 63.75c.183 0 .332.15.332.332v.996a.332.332 0 0 1-.332.332h-23.11a.332.332 0 0 1-.332-.332v-.996c0-.183.15-.332.332-.332h23.11Zm-16.317-9.038h9.524v7.046h-9.524v-7.046Zm31.884-52.08a.146.146 0 0 1 .206 0l2.18 2.18a.145.145 0 0 1 0 .206l-2.08 2.08-2.386-2.386 2.08-2.08Zm-3.49 3.49 2.387 2.385-.695.695-2.386-2.386.695-.695ZM55.53 8.224l2.386 2.386-11.787 11.787-2.386-2.386L55.53 8.225Zm-1.474 9.106a2.46 2.46 0 0 1 2.457 2.458 2.46 2.46 0 0 1-2.457 2.457 2.46 2.46 0 0 1-2.457-2.457l.002-.047 2.408-2.408c.016 0 .031-.003.047-.003Zm-9.657 6.155L41.45 24.69l1.204-2.948 1.744 1.744Zm21.61 22.633H1.992V9.693c0-.55.447-.996.996-.996H52.24l-1.519 1.519H16.867a.996.996 0 1 0 0 1.992H48.73l-7.026 7.026c-.198.2-.354.434-.46.696l-2.226 5.447c-.204.5-.089 1.07.293 1.453a1.336 1.336 0 0 0 1.453.293l5.447-2.225c.255-.104.482-.255.678-.445l3.03-3.03a4.454 4.454 0 0 0 4.137 2.815 4.454 4.454 0 0 0 4.449-4.45 4.454 4.454 0 0 0-2.814-4.135l3.445-3.445h3.362v30.4h-.528l-3.61-6.252a.996.996 0 1 0-1.725.996l3.035 5.256H45.754l-1.493-2.585 6.958-12.05 3.09 5.353a.996.996 0 1 0 1.726-.996l-3.298-5.711a1.736 1.736 0 0 0-1.518-.877c-.634 0-1.202.328-1.52.877L43.112 38.03l-8.454-14.643a1.736 1.736 0 0 0-1.519-.877c-.634 0-1.202.328-1.519.877l-2.246 3.89V16.602a2.327 2.327 0 0 0-2.324-2.324H9.961a2.327 2.327 0 0 0-2.324 2.324v21.782c0 .915.744 1.66 1.66 1.66h12.707l-1.48 2.565H5.503v-30.4h6.715a.996.996 0 1 0 0-1.992H5.17c-.915 0-1.66.745-1.66 1.66V42.94c0 .915.745 1.66 1.66 1.66H62.83c.915 0 1.66-.745 1.66-1.66V11.876c0-.915-.745-1.66-1.66-1.66h-1.702l1.52-1.519h2.365c.549 0 .996.447.996.996V46.12ZM27.382 22.118V38.05H9.629V22.118h17.753ZM9.629 20.126V16.6c0-.183.149-.332.332-.332h17.088c.184 0 .333.149.333.332v3.525H9.629Zm14.676 19.916h3.409c.915 0 1.66-.744 1.66-1.66v-2.11c.249.12.526.184.817.184.68 0 1.289-.351 1.629-.94l1.695-2.936a.206.206 0 0 1 .186-.108c.057 0 .135.02.186.108l1.045 1.81c.34.59.95.94 1.63.94.68 0 1.288-.35 1.628-.94l.26-.45 5.003 8.668h-20.63l1.482-2.566Zm5.069-7.104v-1.675l3.765-6.521 4.16 7.207-.738 1.278-.949-1.643a2.184 2.184 0 0 0-1.911-1.104c-.798 0-1.513.413-1.912 1.104l-1.599 2.769-.816-1.415Z"/>
    </g>

    <g id="photographer-icon" >
        <path fill="currentColor" d="M55.355 72.968h19.358l-4.97-14.91a11.327 11.327 0 0 0-8.655-7.547l-13.282-2.49v-3.074a15.092 15.092 0 0 0 6.08-9.827c2.968-.502 5.243-3.075 5.243-6.184v-8.807C59.129 9.03 50.099 0 39 0 27.901 0 18.871 9.03 18.871 20.129v8.806c0 3.107 2.263 5.695 5.227 6.201.654 4.034 2.913 7.535 6.096 9.83v3.056l-13.283 2.49a11.329 11.329 0 0 0-8.656 7.548L3.287 72.968h19.358v-2.516h-3.42l2.124-8.502-2.44-.61-2.279 9.112H6.777l3.866-11.597a8.814 8.814 0 0 1 6.732-5.872l8.014-1.502 2.05 9.22a3.776 3.776 0 0 0-2.278 3.46v10.065A3.779 3.779 0 0 0 28.935 78h20.13a3.779 3.779 0 0 0 3.774-3.774V64.16c0-1.548-.939-2.88-2.276-3.46l2.05-9.22 8.013 1.502a8.816 8.816 0 0 1 6.732 5.872l3.865 11.597H61.37L59.09 61.34l-2.44.609 2.124 8.502h-3.42v2.516Zm-5.217-21.951L48.4 58.835l-.87-3.48h-5.493l4.932-4.932 3.169.594Zm-3.943 9.37h-14.39l.63-2.516h13.13l.63 2.516ZM39 54.834l-6.29-6.29v-2.121A14.992 14.992 0 0 0 39 47.806a14.99 14.99 0 0 0 6.29-1.39v2.128L39 54.834Zm15.097-22.356v-7.084c1.46.52 2.516 1.905 2.516 3.543 0 1.638-1.056 3.02-2.516 3.541Zm-30.194.017a3.781 3.781 0 0 1-2.516-3.56c0-1.64 1.052-3.039 2.516-3.559v7.119Zm-2.516-8.56V20.13c0-9.712 7.9-17.613 17.613-17.613 9.712 0 17.613 7.9 17.613 17.613v3.807a6.232 6.232 0 0 0-2.556-1.168 3.031 3.031 0 0 0-2.997-2.639c-.8 0-1.582.325-2.21.954a13.818 13.818 0 0 1-7.734 3.92l.08-.161c.21-.42.32-.89.32-1.359v-.317a3.04 3.04 0 0 0-3.037-3.037c-.799 0-1.581.325-2.147.89a14.058 14.058 0 0 1-9.913 4.142v-2.516h-1.258c-1.421 0-2.72.492-3.774 1.29Zm5.032 8.775v-5.033A16.554 16.554 0 0 0 38.11 22.8c.303-.305.891-.057.891.367v.317c0 .08-.019.161-.055.234l-1.98 3.96H39c4.393 0 8.522-1.71 11.69-4.878.304-.305.89-.057.89.367v9.544c0 6.937-5.643 12.58-12.58 12.58s-12.58-5.643-12.58-12.58Zm4.612 17.713 4.932 4.932h-5.494l-.87 3.48-1.737-7.818 3.17-.594Zm-2.095 25.06a1.26 1.26 0 0 1-1.259-1.257V64.16a1.26 1.26 0 0 1 1.259-1.258h3.913a8.773 8.773 0 0 0-2.655 6.29 8.773 8.773 0 0 0 2.655 6.29h-3.913Zm10.064 0a6.297 6.297 0 0 1-6.29-6.29 6.297 6.297 0 0 1 6.29-6.29 6.297 6.297 0 0 1 6.29 6.29 6.297 6.297 0 0 1-6.29 6.29Zm11.323-1.257a1.26 1.26 0 0 1-1.258 1.258H45.15a8.773 8.773 0 0 0 0-12.58h3.913a1.26 1.26 0 0 1 1.259 1.257v10.065Z"/><path fill="currentColor" d="M39 65.42a3.779 3.779 0 0 0-3.774 3.774A3.779 3.779 0 0 0 39 72.968a3.779 3.779 0 0 0 3.774-3.774A3.779 3.779 0 0 0 39 65.419Zm0 5.032a1.26 1.26 0 0 1-1.258-1.258 1.26 1.26 0 0 1 2.516 0A1.26 1.26 0 0 1 39 70.452Z"/>
    </g>

    <g id="microphone-icon" fill="currentColor" clip-path="url(#a)"><path d="M37 0c-7.982 0-14.478 6.753-14.478 15.053V37c0 8.3 6.496 15.053 14.478 15.053 7.982 0 14.478-6.752 14.478-15.053V15.053C51.478 6.753 44.982 0 37 0Zm0 48.835c-5.688 0-10.394-4.46-11.145-10.226h22.288c-.75 5.767-5.455 10.226-11.143 10.226Zm11.26-13.444H25.74V15.053c0-6.527 5.05-11.836 11.26-11.836s11.26 5.31 11.26 11.836V35.39Z"/><path d="M59.522 28.956a1.61 1.61 0 0 0-1.609 1.61V37c0 11.531-9.382 20.913-20.913 20.913S16.087 48.531 16.087 37v-6.435a1.61 1.61 0 0 0-3.217 0V37c0 12.762 9.965 23.215 22.521 24.048v9.735h-8.043a1.61 1.61 0 0 0 0 3.217h19.304a1.61 1.61 0 0 0 0-3.217H38.61v-9.735C51.165 60.215 61.13 49.762 61.13 37v-6.435a1.61 1.61 0 0 0-1.608-1.609Z"/></g>
</svg>
